<?xml version="1.0" standalone="no"?>
<!DOCTYPE svg PUBLIC "-//W3C//DTD SVG 20010904//EN"
 "http://www.w3.org/TR/2001/REC-SVG-20010904/DTD/svg10.dtd">
<svg version="1.0" xmlns="http://www.w3.org/2000/svg"
 width="1024.000000pt" height="1024.000000pt" viewBox="0 0 1024.000000 1024.000000"
 preserveAspectRatio="xMidYMid meet">
<metadata>
Created by potrace 1.16, written by Peter Selinger 2001-2019
</metadata>
<g transform="translate(0.000000,1024.000000) scale(0.100000,-0.100000)"
fill="#000000" stroke="none">
<path d="M4765 9963 c-834 -55 -1710 -364 -2410 -848 -377 -261 -752 -614
-1049 -990 -116 -147 -316 -447 -412 -620 -323 -580 -530 -1276 -584 -1959
-23 -300 -8 -776 35 -1081 204 -1454 1105 -2781 2387 -3517 1057 -606 2245
-796 3428 -546 639 134 1316 446 1875 863 711 529 1261 1257 1598 2110 327
830 425 1730 282 2582 -134 794 -438 1493 -931 2143 -409 539 -911 966 -1510
1284 -617 328 -1221 508 -1914 571 -149 13 -638 18 -795 8z m578 -403 c217
-38 441 -128 578 -230 138 -103 340 -347 410 -495 80 -168 118 -383 84 -486
-21 -64 -39 -90 -23 -33 16 60 4 207 -26 291 -26 77 -53 130 -41 83 26 -110
45 -232 44 -293 l-2 -72 -8 85 c-17 181 -65 363 -129 490 -46 91 -155 226
-258 320 -100 92 -157 123 -71 39 40 -38 77 -86 93 -119 24 -50 24 -52 4 -26
-108 139 -270 265 -416 323 -107 41 -123 42 -52 1 94 -53 165 -114 224 -191
31 -40 56 -77 56 -81 0 -4 -28 23 -61 59 -81 86 -156 141 -276 203 -177 91
-376 130 -583 115 l-95 -6 76 -13 c92 -16 227 -58 294 -91 53 -27 215 -130
215 -137 0 -2 -44 18 -97 45 -135 67 -287 115 -421 133 -125 18 -379 21 -402
6 -11 -7 -3 -10 30 -10 117 -1 287 -49 404 -114 37 -21 66 -39 64 -41 -2 -2
-34 7 -71 20 -167 61 -362 96 -522 94 l-90 -1 70 -14 c131 -24 170 -36 250
-74 44 -21 96 -52 115 -69 l35 -31 -65 29 c-142 63 -322 102 -460 100 -74 -1
-74 -2 -30 -11 114 -25 199 -51 264 -82 97 -46 129 -73 49 -41 -191 76 -378
102 -513 72 l-65 -15 60 -1 c81 -2 177 -17 250 -41 66 -22 220 -110 193 -110
-9 0 -19 4 -22 9 -3 5 -45 23 -93 41 -159 57 -394 77 -504 43 l-54 -17 75 -7
c130 -11 231 -49 350 -129 59 -40 178 -146 125 -112 -67 44 -255 134 -330 159
-112 37 -262 39 -350 3 l-60 -24 85 -12 c172 -25 337 -93 451 -184 75 -60 94
-89 23 -34 -70 53 -214 119 -329 150 -81 21 -115 25 -180 22 -133 -8 -199 -55
-312 -223 -148 -220 -246 -572 -447 -1594 -46 -230 -65 -300 -66 -236 0 44 43
298 89 525 216 1059 300 1297 537 1518 315 295 794 493 1314 542 157 15 477 4
613 -20z m-81 -493 c144 -127 271 -371 267 -517 -1 -25 -3 -36 -6 -25 -38 169
-174 418 -308 565 -66 71 -55 66 47 -23z m219 -75 c114 -141 171 -264 204
-435 8 -44 14 -82 12 -84 -2 -2 -14 35 -26 81 -36 136 -158 362 -292 541 l-23
30 33 -30 c18 -16 59 -63 92 -103z m-343 59 c143 -123 225 -266 258 -446 20
-115 16 -123 -12 -22 -47 172 -137 330 -258 454 -39 40 -68 73 -64 73 4 0 38
-27 76 -59z m-79 -107 c121 -132 195 -274 236 -452 21 -88 18 -88 -14 -2 -70
187 -200 390 -354 554 -20 21 -37 41 -37 43 0 11 123 -93 169 -143z m-252 1
c102 -82 204 -192 249 -268 43 -73 82 -167 89 -216 4 -28 1 -23 -18 25 -48
126 -131 240 -292 402 -67 67 -119 122 -115 122 3 0 42 -29 87 -65z m-1665
-30 c3 -3 -34 -90 -82 -193 -158 -337 -260 -615 -550 -1487 -271 -816 -344
-1018 -513 -1410 -91 -212 -248 -545 -258 -545 -14 0 -57 103 -78 185 -60 238
-51 674 19 971 92 394 439 1135 845 1806 189 311 419 580 565 658 39 21 44 23
52 15z m3639 -335 c453 -18 826 -46 1124 -86 66 -9 147 -20 180 -24 153 -19
-182 -8 -466 15 -167 13 -423 34 -569 45 -347 26 -532 47 -545 62 -7 8 -7 9 1
5 7 -4 130 -11 275 -17z m-2524 -205 c82 -12 300 -59 418 -91 17 -4 16 -2 -5
16 l-25 21 25 -7 c32 -9 77 -31 114 -57 16 -12 26 -16 22 -9 -10 16 5 15 28
-3 29 -22 42 -18 15 4 -23 19 -22 19 36 -1 74 -25 229 -41 315 -33 90 9 190
32 288 67 l82 30 108 -43 c59 -23 138 -58 175 -77 38 -19 71 -32 74 -29 2 3
-5 11 -18 17 -18 10 -20 14 -7 21 9 5 37 -1 76 -17 33 -13 96 -31 139 -39 135
-26 206 -49 271 -89 34 -22 61 -41 59 -43 -2 -2 -25 6 -51 18 -58 25 -82 20
-35 -7 41 -25 180 -136 200 -161 8 -9 -2 -6 -21 9 -37 27 -100 61 -100 54 0
-2 21 -18 48 -35 26 -17 65 -47 87 -67 l40 -36 -49 26 c-27 15 -51 25 -52 23
-2 -2 30 -27 71 -55 69 -49 121 -97 65 -61 -51 33 -120 71 -120 66 0 -2 36
-32 80 -66 44 -34 80 -67 80 -72 0 -6 -19 5 -42 24 -72 57 -76 53 -12 -14 68
-72 146 -184 191 -274 71 -141 97 -292 91 -547 -1 -91 -5 -169 -8 -172 -3 -2
-81 15 -174 40 -92 24 -169 44 -171 44 -2 0 -20 24 -41 53 -65 89 -177 209
-224 239 -44 28 -109 50 -180 62 -35 5 -35 5 -10 -9 36 -21 8 -19 -90 6 -170
43 -296 7 -422 -122 -38 -39 -64 -60 -57 -47 22 41 133 142 194 176 l60 33
-66 -5 c-134 -10 -234 -71 -305 -187 -21 -33 -39 -58 -40 -56 -9 8 90 175 123
210 43 43 38 47 -16 11 -43 -28 -116 -116 -149 -179 -24 -46 -29 -34 -7 18 31
74 64 167 59 167 -14 0 -67 -105 -94 -185 -17 -51 -36 -100 -43 -109 -7 -9
-43 -23 -82 -31 -159 -33 -426 -7 -566 56 l-46 21 -6 72 c-6 71 -47 212 -54
189 -3 -7 0 -52 6 -100 15 -120 14 -127 -10 -58 -20 56 -75 151 -102 173 -7 6
2 -33 20 -86 37 -112 43 -168 8 -74 -32 89 -73 151 -123 189 -24 18 -47 33
-52 33 -4 0 14 -33 42 -74 45 -69 95 -182 85 -193 -3 -2 -12 17 -21 44 -26 78
-119 220 -164 249 -28 18 -28 18 34 -71 46 -66 68 -107 78 -145 4 -14 -7 -1
-24 29 -42 70 -115 140 -189 180 -32 17 -62 31 -66 31 -4 0 17 -21 46 -47 49
-45 109 -125 109 -146 0 -5 -15 13 -32 39 -77 115 -269 186 -448 168 l-75 -8
90 -12 90 -11 -130 -2 c-72 0 -145 -5 -163 -10 -43 -13 -31 4 14 19 51 17 36
22 -27 9 -66 -14 -162 -56 -226 -100 -60 -41 -144 -111 -139 -116 2 -2 25 6
51 17 26 11 50 18 53 15 3 -3 1 -5 -4 -5 -6 0 -37 -16 -70 -36 -58 -36 -61
-37 -186 -42 -106 -4 -128 -2 -128 9 0 27 41 162 55 183 21 30 18 42 -5 21
-11 -10 -20 -14 -20 -8 0 23 65 96 135 154 70 57 93 81 63 63 -17 -10 -114
-77 -153 -105 -58 -43 56 68 136 133 43 34 76 64 74 66 -2 3 -45 -23 -95 -56
-49 -33 -90 -57 -90 -53 0 11 48 54 118 105 75 53 122 93 122 100 0 8 -151
-82 -195 -117 -37 -29 -39 -30 -24 -7 8 14 63 61 122 105 131 99 162 129 92
90 -85 -47 -149 -88 -172 -109 -36 -31 -27 -3 10 31 17 16 76 63 129 102 90
66 118 91 104 91 -3 0 -58 -31 -121 -69 -138 -83 -132 -70 21 45 62 46 116 89
120 95 7 12 -63 -26 -131 -71 -101 -67 -86 -49 35 45 55 42 100 78 100 81 0 6
-59 -24 -93 -48 -16 -11 -31 -18 -34 -15 -2 3 36 38 86 78 51 39 90 74 87 76
-2 3 -28 -11 -58 -29 -87 -56 -87 -53 2 32 83 80 89 92 23 43 -55 -40 -37 -11
40 64 81 80 137 116 271 173 218 93 417 119 653 85z m3916 -72 c-75 -99 -133
-278 -133 -417 0 -179 68 -455 231 -936 188 -556 284 -892 378 -1330 81 -377
126 -631 180 -1015 43 -307 43 -284 7 -306 -37 -23 -104 -45 -112 -36 -3 3
-12 59 -20 124 -65 526 -215 1277 -359 1788 -18 66 -97 325 -174 576 -232 753
-261 870 -261 1031 0 174 41 307 131 426 36 48 143 142 161 142 5 0 -9 -21
-29 -47z m390 9 c15 -9 57 -53 92 -97 l64 -80 -6 -136 c-9 -208 11 -309 145
-734 209 -658 321 -1054 426 -1505 167 -716 266 -1411 266 -1858 0 -136 -2
-147 -36 -254 -20 -61 -45 -131 -55 -156 l-20 -45 -42 40 c-23 22 -74 65 -113
96 l-71 57 -6 282 c-18 800 -162 1643 -438 2555 -28 92 -108 344 -179 558
-144 437 -182 570 -205 699 -38 222 -1 457 89 564 31 36 49 39 89 14z m-1998
-162 c286 -317 438 -692 438 -1080 0 -131 -27 -383 -44 -411 -17 -28 -19 1 -8
97 18 153 16 432 -5 539 -59 306 -217 621 -416 829 -71 74 -88 97 -83 114 3
12 8 22 12 22 4 0 52 -50 106 -110z m1743 30 c-19 -56 -22 -88 -22 -235 -1
-159 1 -178 32 -299 18 -70 93 -309 168 -530 219 -651 319 -999 429 -1498 122
-557 205 -1277 205 -1784 l0 -134 -24 11 c-22 11 -23 16 -30 172 -21 507 -112
1178 -237 1742 -92 415 -192 768 -385 1360 -239 732 -260 901 -144 1208 29 78
35 68 8 -13z m536 -212 c143 -196 303 -462 432 -719 285 -570 436 -1103 485
-1723 25 -312 1 -834 -50 -1101 l-17 -90 -13 115 c-100 887 -344 1828 -770
2974 -120 321 -136 374 -146 483 -7 75 2 161 15 146 4 -4 33 -43 64 -85z
m-5034 -1023 c166 -20 333 -52 600 -115 315 -75 359 -82 555 -87 138 -4 222
-1 355 13 241 26 741 26 950 1 198 -24 430 -73 635 -133 79 -23 80 -24 80
-106 0 -88 -16 -131 -60 -158 -38 -23 -45 -49 -45 -154 0 -77 -21 -377 -45
-631 -8 -88 -21 -268 -30 -400 -16 -251 -32 -375 -66 -510 -72 -287 -173 -482
-341 -661 -71 -75 -147 -138 -425 -360 -34 -27 -118 -95 -185 -152 -211 -177
-218 -183 -218 -177 0 4 9 18 19 31 20 26 85 173 79 180 -2 2 -33 -38 -68 -89
-237 -337 -531 -473 -980 -454 -317 14 -549 89 -702 227 -75 68 -164 185 -281
370 -44 69 -76 114 -72 100 13 -45 64 -160 108 -246 30 -57 38 -80 26 -74 -30
17 -403 392 -505 510 -214 246 -309 381 -409 580 -164 328 -180 512 -104 1195
25 225 115 873 135 967 4 21 -4 36 -40 77 -41 45 -66 100 -66 141 0 9 24 39
53 67 l52 52 170 10 c231 13 658 6 825 -14z m-1141 -280 c45 -23 65 -77 63
-171 -3 -147 -10 -147 -85 1 -36 72 -66 123 -66 115 -1 -8 8 -62 18 -120 33
-183 64 -574 50 -635 -6 -27 -7 -27 -8 -5 -1 13 -19 112 -41 220 -46 230 -74
443 -67 513 7 82 67 118 136 82z m4726 -573 c-8 -120 -31 -363 -51 -542 -87
-814 -155 -1246 -254 -1628 -36 -136 -218 -700 -219 -678 -1 5 30 133 68 285
38 152 77 310 85 351 8 41 33 162 56 268 142 684 271 1535 312 2062 7 91 14
150 16 132 2 -19 -4 -131 -13 -250z m-309 233 c13 -20 15 -39 11 -86 -13 -121
-50 -268 -117 -468 -38 -113 -76 -244 -84 -291 l-15 -85 5 94 c6 115 31 243
85 432 46 165 89 342 84 347 -2 2 -9 -7 -16 -20 -20 -39 -103 -137 -111 -132
-14 9 -9 124 7 153 38 75 119 104 151 56z m-5846 -262 c0 -5 -27 -37 -60 -73
-72 -77 -203 -270 -293 -430 -35 -63 -135 -239 -221 -390 l-156 -275 0 255 c0
140 7 327 15 415 16 187 1 163 181 277 135 86 299 170 394 204 63 23 140 32
140 17z m68 -53 c3 -15 -21 -59 -76 -139 -44 -64 -149 -235 -234 -381 -173
-297 -249 -422 -382 -625 l-91 -140 -3 63 c-3 63 -3 63 71 180 86 136 147 241
282 482 161 288 260 436 358 538 54 55 70 60 75 22z m38 -119 c-15 -169 -91
-377 -248 -681 -271 -525 -321 -626 -381 -770 -36 -86 -73 -183 -83 -215 -10
-33 -21 -63 -24 -68 -6 -7 -64 324 -76 439 l-6 62 135 203 c74 112 192 301
263 419 353 595 406 680 421 680 3 0 3 -31 -1 -69z m5559 -646 c21 -109 17
-203 -13 -262 -38 -73 -45 -66 -39 33 4 49 10 147 13 218 4 71 10 122 14 115
4 -8 15 -54 25 -104z m795 -630 c207 -129 485 -292 579 -339 28 -15 75 -33
104 -41 28 -7 42 -14 30 -14 -45 -2 -181 50 -285 108 -183 102 -682 424 -753
486 -16 14 4 4 45 -23 41 -27 167 -107 280 -177z m-5030 -71 c0 -8 -24 -41
-53 -72 -63 -67 -103 -124 -145 -207 -28 -56 -75 -198 -85 -255 -2 -14 -5 1
-6 33 -4 191 97 399 239 488 53 34 50 33 50 13z m263 -505 c174 -295 500 -686
737 -884 269 -224 568 -338 930 -352 273 -11 496 46 691 177 146 98 483 374
633 519 46 44 77 68 74 56 -22 -74 -166 -445 -202 -519 -119 -243 -283 -476
-712 -1009 -92 -114 -218 -194 -381 -243 -118 -35 -344 -45 -474 -20 -330 62
-618 261 -884 611 -54 72 -135 177 -179 235 -242 319 -389 643 -451 992 -26
143 -38 424 -28 638 5 108 13 202 17 209 5 8 37 -45 91 -152 45 -91 107 -207
138 -258z m-490 334 c-4 -10 -32 -49 -63 -88 -131 -162 -163 -229 -191 -398
-24 -147 -45 -194 -111 -250 -59 -49 -89 -98 -122 -194 -57 -168 -97 -207
-278 -273 -54 -20 -107 -49 -151 -83 -112 -85 -129 -97 -141 -97 -6 0 -2 6 9
12 11 6 49 37 85 68 85 74 126 99 233 141 49 19 106 49 127 67 42 35 83 113
95 176 16 91 47 149 120 226 78 82 77 80 90 220 15 154 63 261 178 394 33 39
44 57 31 53 -10 -3 -113 -34 -229 -68 -243 -72 -274 -84 -336 -132 -65 -49
-78 -55 -211 -97 -145 -46 -231 -96 -342 -199 l-86 -79 -97 -22 c-140 -31
-198 -48 -259 -75 -52 -23 -54 -23 -64 -5 -5 10 -10 23 -10 28 0 18 156 70
284 96 l130 26 75 78 c103 105 197 154 421 216 35 10 79 33 120 65 95 74 310
148 555 192 133 23 146 23 138 2z m4872 -138 c28 -13 60 -32 72 -43 28 -25 63
-82 63 -104 0 -20 11 -23 27 -7 6 6 38 13 72 16 60 6 61 5 94 -31 18 -20 42
-36 53 -37 10 0 34 -6 52 -12 l33 -12 -56 -19 c-52 -18 -58 -18 -89 -3 -19 9
-37 25 -41 36 -9 29 -50 37 -92 17 -42 -20 -60 -59 -132 -285 -29 -89 -54
-161 -56 -160 -5 6 53 267 76 344 27 87 27 149 2 184 -23 31 -105 78 -151 87
-24 5 -32 11 -28 21 3 8 6 21 6 29 0 18 21 13 95 -21z m1569 -97 c14 -235 17
-320 9 -317 -4 2 -40 17 -79 34 l-71 30 -7 143 c-4 79 -4 147 -1 151 6 5 122
48 137 50 3 1 9 -41 12 -91z m-722 -174 c330 -43 672 -170 944 -352 103 -69
281 -212 298 -241 9 -14 -149 -356 -238 -516 -298 -535 -672 -969 -1213 -1407
-66 -54 -123 -98 -126 -98 -3 0 -10 39 -17 87 -39 274 52 951 164 1217 28 68
10 50 -32 -31 -67 -130 -108 -243 -163 -453 l-11 -45 -50 175 c-77 276 -175
664 -198 790 -29 156 -37 382 -17 475 28 132 54 184 126 255 102 101 228 158
353 159 31 1 112 -6 180 -15z m-1093 -704 c25 -441 89 -810 191 -1089 45 -122
30 -110 -20 16 -89 227 -146 483 -169 753 -12 146 -26 547 -18 540 2 -3 10
-102 16 -220z m-4955 -334 c114 -553 192 -1052 220 -1411 l5 -70 -14 43 c-19
59 -125 684 -175 1032 -53 372 -89 618 -97 655 -3 17 -3 28 0 25 4 -4 31 -126
61 -274z m4403 -498 c-150 -374 -379 -901 -552 -1268 -101 -213 -293 -590
-301 -590 -3 0 -1 8 4 18 6 9 75 168 155 352 80 184 247 552 371 818 124 266
265 575 313 687 48 112 89 202 91 200 2 -2 -35 -99 -81 -217z m-3563 -258 c73
-141 148 -328 241 -600 78 -230 208 -667 202 -683 -1 -4 -46 126 -100 290
-207 632 -316 924 -402 1078 -27 48 -35 68 -20 50 13 -16 49 -77 79 -135z
m2392 -132 c-155 -351 -232 -517 -354 -763 -149 -300 -363 -708 -369 -702 -7
8 189 428 309 662 71 138 196 386 279 553 83 166 152 302 155 302 2 0 -7 -24
-20 -52z m-1808 -361 c208 -163 455 -276 670 -307 103 -15 296 -8 377 14 33 9
88 30 123 46 86 40 70 21 -20 -23 -96 -48 -172 -67 -290 -74 -345 -21 -672
128 -1011 459 l-82 80 73 -63 c41 -35 113 -95 160 -132z m3259 -213 c38 -29
71 -79 79 -123 8 -39 -8 -153 -28 -202 -12 -28 -13 -23 -14 53 0 62 -6 95 -21
129 -31 70 -86 125 -144 144 -27 9 -49 19 -49 22 0 3 34 3 74 1 56 -2 82 -9
103 -24z m395 -130 c45 -23 98 -63 98 -75 0 -5 -13 0 -30 12 -36 27 -122 36
-176 19 -25 -8 -69 -42 -121 -93 -46 -44 -83 -77 -83 -73 0 21 73 155 97 178
64 61 136 72 215 32z m-465 -15 c51 -24 93 -88 93 -139 l0 -34 -28 45 c-52 82
-119 120 -202 118 -28 -1 -24 -4 25 -13 77 -16 94 -26 144 -82 50 -57 54 -77
6 -35 -94 82 -219 102 -350 55 -41 -14 39 58 90 82 66 32 161 33 222 3z m433
-151 c59 -36 117 -114 106 -144 -5 -13 -12 -11 -43 16 -61 54 -117 74 -211 75
-46 1 -85 -2 -88 -7 -3 -4 -10 -8 -17 -8 -18 0 55 71 88 86 52 23 105 17 165
-18z m-406 -40 c29 -15 56 -39 56 -51 0 -6 -9 -2 -20 8 -23 21 -105 31 -140
17 -20 -8 -15 -9 26 -5 36 4 60 1 82 -11 50 -26 44 -31 -32 -31 -67 0 -81 -4
-169 -48 -66 -32 -115 -66 -153 -102 -60 -59 -62 -52 -13 47 50 100 117 162
198 185 49 13 130 9 165 -9z"/>
<path d="M3030 6919 c-207 -12 -212 -13 -253 -58 -31 -35 -34 -43 -27 -73 13
-55 27 -82 53 -104 24 -21 24 -24 30 -230 11 -407 78 -617 228 -714 168 -109
478 -172 849 -174 l215 -1 -29 -58 c-50 -98 -48 -201 5 -261 39 -45 99 -72
205 -91 128 -23 149 -31 251 -91 50 -31 108 -60 128 -65 53 -15 121 -3 266 47
82 28 158 47 217 54 188 21 241 43 272 113 23 51 26 135 6 201 l-15 48 25 -6
c151 -38 574 -59 751 -36 114 14 243 49 315 86 111 56 192 176 263 387 38 114
85 333 85 396 0 33 7 49 34 79 38 42 58 103 53 159 -4 36 -7 39 -58 56 -160
52 -451 112 -674 139 -173 20 -692 17 -890 -6 -203 -23 -446 -24 -577 -2 -54
9 -214 43 -355 77 -260 61 -459 98 -633 119 -128 15 -549 21 -740 9z m403
-104 c-215 -22 -319 -50 -342 -93 -6 -12 -11 -46 -11 -76 0 -53 -2 -56 -24
-56 -40 0 -54 9 -49 33 18 78 27 101 54 131 20 24 44 38 77 45 76 18 188 28
312 29 l115 0 -132 -13z m962 -167 c39 -5 78 -14 87 -19 41 -22 64 -122 47
-199 -12 -53 -21 -60 -77 -60 l-43 0 2 52 c3 49 2 52 -24 59 -15 4 -72 11
-127 15 l-100 7 0 85 0 85 83 -7 c45 -4 114 -12 152 -18z m1130 -28 c-16 -5
-70 -18 -119 -29 -160 -37 -196 -71 -196 -187 0 -63 -7 -74 -47 -74 -12 0 -14
9 -8 53 9 72 50 154 89 178 53 33 193 66 281 67 l30 0 -30 -8z m689 -42 c4
-13 10 -76 13 -140 l6 -118 -47 0 -47 0 7 69 6 68 -43 6 c-24 4 -99 9 -165 13
l-122 6 -6 37 c-3 20 -6 46 -6 59 l0 22 199 0 c197 0 199 0 205 -22z m201 -3
c61 -10 94 -20 102 -32 14 -18 18 -128 7 -183 -6 -27 -10 -31 -28 -25 -12 4
-53 9 -92 12 -66 5 -72 4 -77 -16 -3 -14 -13 -21 -30 -21 -24 0 -24 1 -31 118
-4 64 -10 127 -13 140 -5 20 -2 22 33 22 22 0 79 -7 129 -15z m-3374 -51 c61
-17 303 -95 306 -98 2 -2 7 -24 12 -51 l9 -48 -82 6 c-44 4 -134 10 -198 13
l-118 7 0 41 c0 39 11 146 15 146 1 0 26 -7 56 -16z m3619 -13 c63 -44 84
-176 61 -366 -24 -190 -104 -411 -180 -497 -32 -36 -139 -98 -170 -98 -9 0 11
13 44 28 128 61 203 196 245 440 34 195 23 288 -33 280 -16 -2 -26 -16 -38
-51 l-16 -48 -6 77 c-4 42 -7 120 -7 172 l0 94 38 -6 c20 -4 48 -15 62 -25z
m-1739 -101 c29 -16 44 -53 74 -185 60 -262 128 -450 210 -577 26 -39 40 -68
33 -66 -56 21 -60 21 -56 -8 3 -25 12 -32 81 -60 94 -39 105 -47 128 -99 32
-70 20 -165 -27 -207 -16 -14 -42 -16 -169 -15 l-150 0 -130 -46 c-71 -26
-145 -47 -163 -47 -41 0 -92 21 -151 63 -118 84 -200 113 -295 104 -34 -3 -71
-9 -82 -12 -16 -5 -31 2 -55 23 -31 27 -34 35 -37 99 -3 56 0 78 16 110 28 55
83 100 169 140 75 35 81 41 61 61 -8 8 -16 8 -32 0 -12 -6 15 27 59 74 95 100
153 200 249 433 86 207 87 208 116 216 39 11 129 10 151 -1z m312 -498 c56
-136 141 -243 229 -288 120 -61 332 -96 588 -98 141 -1 170 -3 125 -9 -33 -5
-141 -6 -240 -3 -308 8 -493 61 -588 166 -78 87 -147 242 -182 408 -24 118
-16 116 14 -3 16 -60 40 -138 54 -173z m-799 116 c-74 -148 -174 -260 -270
-305 -81 -37 -235 -56 -396 -49 -351 15 -590 82 -688 194 -55 61 -50 74 5 18
119 -119 421 -196 763 -196 285 1 384 54 541 293 35 53 65 97 67 97 3 0 -8
-24 -22 -52z"/>
<path d="M3851 5332 c-40 -37 -141 -119 -224 -182 -83 -63 -162 -131 -175
-150 -32 -47 -27 -113 16 -200 l31 -65 -2 95 c-1 74 3 103 17 130 10 19 100
116 200 215 169 166 225 226 215 225 -2 -1 -37 -31 -78 -68z"/>
<path d="M5601 5293 c8 -12 70 -100 138 -194 68 -94 141 -205 163 -246 38 -70
40 -78 35 -139 -4 -57 -3 -63 11 -52 44 37 55 153 21 227 -13 29 -72 98 -167
195 -82 83 -163 169 -182 191 -18 22 -27 30 -19 18z"/>
<path d="M3672 4822 c-25 -66 -24 -78 13 -95 22 -11 73 -65 148 -159 127 -159
241 -275 302 -305 58 -30 217 -79 314 -97 201 -38 483 -30 678 19 184 47 298
117 438 269 110 120 156 153 190 138 21 -10 25 -8 31 11 11 33 5 92 -13 134
l-16 38 -7 -33 c-11 -46 -37 -72 -75 -72 -18 0 -99 10 -181 21 -129 19 -198
22 -514 23 -296 1 -382 5 -455 19 -57 10 -193 20 -375 27 -321 12 -372 19
-428 60 l-40 29 -10 -27z m346 -113 c24 -8 31 -18 37 -46 l6 -36 19 31 c21 34
55 56 74 49 14 -6 36 -72 37 -113 0 -25 3 -21 20 24 22 57 32 61 101 42 42
-12 58 -33 59 -82 l0 -33 15 40 c23 62 29 65 109 48 136 -28 172 -53 188 -128
4 -15 5 -13 6 7 0 15 11 39 24 54 21 24 32 28 103 31 106 6 130 -4 147 -64
l14 -48 8 43 c8 50 37 70 115 79 l49 6 12 -48 12 -47 13 37 c17 51 25 57 83
63 48 4 51 3 61 -23 6 -16 9 -34 6 -42 -3 -7 -2 -13 2 -13 4 0 13 14 19 30 8
20 24 35 48 46 21 8 40 13 43 9 3 -3 1 -39 -5 -81 -12 -84 -31 -114 -75 -114
-27 0 -28 2 -29 53 l-1 52 -8 -45 c-18 -99 -40 -123 -113 -118 -40 3 -42 5
-48 38 l-5 35 -12 -40 c-17 -60 -32 -74 -91 -85 -89 -17 -90 -16 -93 38 l-3
47 -18 -52 c-10 -28 -25 -57 -33 -64 -19 -16 -192 -15 -208 1 -6 6 -16 28 -22
48 l-12 37 -1 -39 -1 -39 -97 6 c-154 9 -202 31 -218 100 -7 31 -8 31 -14 8
-12 -43 -36 -49 -89 -21 -44 24 -47 28 -50 70 l-4 45 -13 -32 c-12 -28 -19
-33 -50 -33 -61 0 -82 37 -76 135 1 23 0 27 -8 15 -6 -8 -11 -23 -11 -32 0
-22 -12 -23 -49 -3 -34 17 -42 35 -35 78 5 31 24 87 29 87 1 0 16 -5 33 -11z
m330 -415 c97 -30 266 -47 472 -48 163 0 215 3 253 16 56 19 62 15 10 -7 -160
-67 -584 -51 -759 29 -30 14 -54 28 -54 32 0 3 8 3 18 -1 9 -4 37 -14 60 -21z"/>
<path d="M4110 4050 c52 -40 168 -100 241 -124 244 -82 516 -69 724 35 85 41
82 42 -60 1 -84 -24 -105 -26 -310 -26 -270 -1 -373 18 -539 100 -79 39 -92
42 -56 14z"/>
</g>
</svg>
